<svg
className="css-ze2te4 css-qd6ojx"
viewBox="0 0 100 110.282"
width="1em"
height="1em"
>
<g fill="#62c1bf" className="css-12ya9ev">
  <path
    xmlns="http://www.w3.org/2000/svg"
    d="M251.15 575.64c-13.88-7.82-22.16-21.97-22.16-37.88V376.1c0-1.89.43-3.69.7-5.52L74.04 292.75c-6.92-3.45-14.53-3.11-21.1.96-6.58 4.07-10.28 10.7-10.28 18.44v357.09c0 22.8 12.3 43.81 32.17 54.98l311.91 175.27c4.6 2.58 9.83 2.55 14.38-.11 4.56-2.68 7.17-7.21 7.17-12.49V682.11c0-11.26-6.09-21.64-15.92-27.13l-141.22-79.35zm324.77-239.19-135.8-77.15c-4.86-2.76-10.36-2.76-15.22 0l-135.8 77.15c-1.47.83-2.28 2.34-2.22 4.04.06 1.69.97 3.11 2.49 3.87l137.76 68.89c3.5 1.74 7.25 1.74 10.74 0l137.76-68.89c1.52-.76 2.44-2.18 2.49-3.87.06-1.69-.75-3.2-2.22-4.04zm10.4 36-132.15 66.08c-4.17 2.09-6.64 6.08-6.64 10.74v169.89c0 2.19 1.08 4.07 2.97 5.19 1.89 1.11 4.06 1.12 5.97.05l135.22-75.98c4.86-2.73 7.66-7.51 7.66-13.09V380.52c0-3.22-1.54-5.97-4.27-7.66-2.73-1.69-5.89-1.83-8.76-.4zm-175.46 66.08-132.15-66.08c-2.87-1.43-6.04-1.29-8.76.4-2.73 1.69-4.27 4.44-4.27 7.66v154.81c0 5.57 2.8 10.35 7.66 13.09l135.22 75.98c1.91 1.07 4.08 1.06 5.97-.05 1.89-1.11 2.98-2.99 2.98-5.19V449.26c0-4.66-2.47-8.65-6.64-10.74zm-1.55-213.17c13.55-7.7 29.75-7.72 43.32-.01l141.83 80.58c4.7 2.67 8.4 6.52 11.18 10.91l183.52-91.76c3.65-1.83 5.86-5.25 5.99-9.33.14-4.07-1.81-7.71-5.34-9.72L462.77 20.22c-11.7-6.66-24.95-6.65-36.65 0L99.08 206.03c-3.54 2.01-5.47 5.64-5.34 9.72.13 4.08 2.35 7.5 6 9.33l165.37 82.69c.86-.6 1.56-1.37 2.48-1.89l141.72-80.52zm426.64 68.34c-6.57-4.07-14.19-4.41-21.1-.96l-174.32 87.17a13.689 13.689 0 0 0-7.57 12.24v144.91c0 16.13-8.7 31.01-22.77 38.92l-108.4 60.91a41.545 41.545 0 0 0-21.19 36.22v213.78c0 5.28 2.6 9.81 7.16 12.49 4.55 2.67 9.78 2.7 14.38.11l325.04-182.65a37.33 37.33 0 0 0 19.04-32.54V312.15c0-7.74-3.7-14.37-10.28-18.44z"
    className="fil0"
    transform="matrix(.12445 0 0 .12445 -5.309 -1.895)"
  />
</g>
</svg>