<svg
className="css-8aabad"
viewBox="0 0 250 192.314"
width="1em"
height="1em"
>
<path
  xmlns="http://www.w3.org/2000/svg"
  fill="#62c1bf"
  d="M251.15 575.64c-13.88-7.82-22.16-21.97-22.16-37.88V376.1c0-1.89.43-3.69.7-5.52L74.04 292.75c-6.92-3.45-14.53-3.11-21.1.96-6.58 4.07-10.28 10.7-10.28 18.44v357.09c0 22.8 12.3 43.81 32.17 54.98l311.91 175.27c4.6 2.58 9.83 2.55 14.38-.11 4.56-2.68 7.17-7.21 7.17-12.49V682.11c0-11.26-6.09-21.64-15.92-27.13l-141.22-79.35zm324.77-239.19-135.8-77.15c-4.86-2.76-10.36-2.76-15.22 0l-135.8 77.15c-1.47.83-2.28 2.34-2.22 4.04.06 1.69.97 3.11 2.49 3.87l137.76 68.89c3.5 1.74 7.25 1.74 10.74 0l137.76-68.89c1.52-.76 2.44-2.18 2.49-3.87.06-1.69-.75-3.2-2.22-4.04zm10.4 36-132.15 66.08c-4.17 2.09-6.64 6.08-6.64 10.74v169.89c0 2.19 1.08 4.07 2.97 5.19 1.89 1.11 4.06 1.12 5.97.05l135.22-75.98c4.86-2.73 7.66-7.51 7.66-13.09V380.52c0-3.22-1.54-5.97-4.27-7.66-2.73-1.69-5.89-1.83-8.76-.4zm-175.46 66.08-132.15-66.08c-2.87-1.43-6.04-1.29-8.76.4-2.73 1.69-4.27 4.44-4.27 7.66v154.81c0 5.57 2.8 10.35 7.66 13.09l135.22 75.98c1.91 1.07 4.08 1.06 5.97-.05 1.89-1.11 2.98-2.99 2.98-5.19V449.26c0-4.66-2.47-8.65-6.64-10.74zm-1.55-213.17c13.55-7.7 29.75-7.72 43.32-.01l141.83 80.58c4.7 2.67 8.4 6.52 11.18 10.91l183.52-91.76c3.65-1.83 5.86-5.25 5.99-9.33.14-4.07-1.81-7.71-5.34-9.72L462.77 20.22c-11.7-6.66-24.95-6.65-36.65 0L99.08 206.03c-3.54 2.01-5.47 5.64-5.34 9.72.13 4.08 2.35 7.5 6 9.33l165.37 82.69c.86-.6 1.56-1.37 2.48-1.89l141.72-80.52zm426.64 68.34c-6.57-4.07-14.19-4.41-21.1-.96l-174.32 87.17a13.689 13.689 0 0 0-7.57 12.24v144.91c0 16.13-8.7 31.01-22.77 38.92l-108.4 60.91a41.545 41.545 0 0 0-21.19 36.22v213.78c0 5.28 2.6 9.81 7.16 12.49 4.55 2.67 9.78 2.7 14.38.11l325.04-182.65a37.33 37.33 0 0 0 19.04-32.54V312.15c0-7.74-3.7-14.37-10.28-18.44z"
  className="fil0"
  transform="matrix(.12445 0 0 .12445 69.691 -1.895)"
/>
<path
  fill="#111"
  d="M35.844 130.773h9.482v60.593h-9.482v-27.594H9.482v27.594H0v-60.593h9.482v23.517h26.362v-23.517zm62.11 5.405c4.077 3.698 6.353 9.008 6.353 14.698 0 5.784-2.276 11-6.353 14.793-1.897 1.706-4.077 3.129-6.543 4.077a22.253 22.253 0 0 1-7.491 1.328h-16.5v20.292h-9.482v-60.688H83.92c2.56 0 5.12.474 7.491 1.423 2.466.948 4.646 2.275 6.543 4.077zM83.92 161.591c5.215 0 10.905-3.698 10.905-10.715s-5.69-10.715-10.905-10.715h-16.5v21.43h16.5zm54.714 30.628c-9.103 0-20.767-2.56-24.56-3.982l3.32-8.914c3.508 1.328 18.205 4.362 25.128 3.13 2.37-.38 4.267-2.56 4.646-5.026.38-3.224-1.991-6.353-6.638-8.534-2.844-1.328-8.155-3.604-12.422-5.405-2.465-1.043-4.646-1.992-5.974-2.56-3.413-1.518-6.258-3.889-8.155-6.638-1.801-2.75-2.75-5.88-2.655-9.104.095-3.034 1.043-5.879 2.845-8.344 1.802-2.56 4.362-4.457 7.396-5.595 4.078-1.612 9.957-1.612 17.448-.284 5.69 1.138 10.81 2.75 12.991 3.508l-3.319 8.914c-1.707-.664-6.353-2.086-11.474-3.035-7.775-1.517-11.189-.663-12.232-.284-2.56.948-4.077 2.94-4.172 5.405-.095 2.75 1.896 5.31 5.215 6.827 1.233.474 3.414 1.423 5.88 2.466 4.266 1.896 9.671 4.172 12.706 5.594 4.362 2.087 7.586 4.742 9.672 8.06 1.991 3.225 2.75 6.733 2.276 10.336-.854 6.543-5.974 11.853-12.328 12.991a34.192 34.192 0 0 1-5.594.474zm57.274-61.446v37.93c0 8.724-2.56 15.172-7.491 19.155-3.13 2.56-7.112 4.077-11.948 4.361-.759.095-1.517.095-2.276.095-2.94 0-6.069-.379-9.672-1.138l1.991-9.292c7.491 1.612 12.896 1.137 15.93-1.328 2.656-2.18 3.983-6.069 3.983-11.853v-28.447H173.72v-9.483h22.189zm36.033 61.446c-9.103 0-20.766-2.56-24.56-3.982l3.32-8.914c3.508 1.328 18.206 4.362 25.128 3.13 2.37-.38 4.267-2.56 4.647-5.026.379-3.224-1.992-6.353-6.638-8.534-2.845-1.328-8.155-3.604-12.422-5.405-2.466-1.043-4.647-1.992-5.974-2.56-3.414-1.518-6.259-3.889-8.155-6.638-1.802-2.75-2.75-5.88-2.655-9.104.095-3.034 1.043-5.879 2.845-8.344 1.801-2.56 4.362-4.457 7.396-5.595 4.077-1.612 9.957-1.612 17.448-.284 5.69 1.138 10.81 2.75 12.99 3.508l-3.318 8.914c-1.707-.664-6.353-2.086-11.474-3.035-7.776-1.517-11.19-.663-12.232-.284-2.56.948-4.078 2.94-4.173 5.405-.094 2.75 1.897 5.31 5.216 6.827 1.232.474 3.413 1.423 5.879 2.466 4.267 1.896 9.672 4.172 12.706 5.594 4.362 2.087 7.586 4.742 9.672 8.06 1.992 3.225 2.75 6.733 2.276 10.336-.853 6.543-5.974 11.853-12.327 12.991a34.192 34.192 0 0 1-5.595.474z"
/>
</svg>